<svg width="17" height="17" viewBox="0 0 17 17" fill="none" xmlns="http://www.w3.org/2000/svg">
<path d="M8.50085 5.95C7.82455 5.95 7.17595 6.21866 6.69773 6.69688C6.21951 7.1751 5.95085 7.8237 5.95085 8.5C5.95085 9.1763 6.21951 9.82491 6.69773 10.3031C7.17595 10.7813 7.82455 11.05 8.50085 11.05C9.17715 11.05 9.82576 10.7813 10.304 10.3031C10.7822 9.82491 11.0509 9.1763 11.0509 8.5C11.0509 7.8237 10.7822 7.1751 10.304 6.69688C9.82576 6.21866 9.17715 5.95 8.50085 5.95ZM8.50085 4.25C9.62802 4.25 10.709 4.69777 11.5061 5.4948C12.3031 6.29183 12.7508 7.37283 12.7508 8.5C12.7508 9.62717 12.3031 10.7082 11.5061 11.5052C10.709 12.3022 9.62802 12.75 8.50085 12.75C7.37368 12.75 6.29268 12.3022 5.49565 11.5052C4.69862 10.7082 4.25085 9.62717 4.25085 8.5C4.25085 7.37283 4.69862 6.29183 5.49565 5.4948C6.29268 4.69777 7.37368 4.25 8.50085 4.25ZM14.0259 4.0375C14.0259 4.31929 13.9139 4.58954 13.7147 4.7888C13.5154 4.98806 13.2451 5.1 12.9634 5.1C12.6816 5.1 12.4113 4.98806 12.212 4.7888C12.0128 4.58954 11.9009 4.31929 11.9009 4.0375C11.9009 3.75571 12.0128 3.48546 12.212 3.2862C12.4113 3.08694 12.6816 2.975 12.9634 2.975C13.2451 2.975 13.5154 3.08694 13.7147 3.2862C13.9139 3.48546 14.0259 3.75571 14.0259 4.0375ZM8.50085 1.7C6.39795 1.7 6.05455 1.70595 5.0762 1.7493C4.4098 1.78075 3.9627 1.87 3.5479 2.0315C3.20077 2.15895 2.88695 2.36322 2.6299 2.62905C2.36386 2.88609 2.1593 3.1999 2.0315 3.54705C1.87 3.96355 1.78075 4.4098 1.75015 5.07535C1.70595 6.01375 1.7 6.34185 1.7 8.5C1.7 10.6038 1.70595 10.9463 1.7493 11.9247C1.78075 12.5902 1.87 13.0382 2.03065 13.4521C2.17515 13.8219 2.34515 14.0879 2.62735 14.3701C2.9138 14.6557 3.17985 14.8265 3.54535 14.9676C3.96525 15.13 4.41235 15.2201 5.07535 15.2507C6.01375 15.2949 6.34185 15.3 8.5 15.3C10.6038 15.3 10.9463 15.2941 11.9247 15.2507C12.5893 15.2192 13.0365 15.13 13.4521 14.9694C13.7989 14.8413 14.1126 14.6371 14.3701 14.3718C14.6566 14.0862 14.8274 13.8201 14.9685 13.4538C15.13 13.0356 15.2201 12.5885 15.2507 11.9238C15.2949 10.9862 15.3 10.6573 15.3 8.5C15.3 6.3971 15.2941 6.0537 15.2507 5.07535C15.2192 4.41065 15.1292 3.96185 14.9685 3.54705C14.8404 3.20026 14.6362 2.88658 14.3709 2.62905C14.114 2.36287 13.8002 2.15829 13.453 2.03065C13.0365 1.86915 12.5893 1.7799 11.9247 1.7493C10.9871 1.7051 10.659 1.7 8.5 1.7M8.5 0C10.8095 0 11.0976 0.00849995 12.0045 0.051C12.9089 0.0935 13.526 0.23545 14.0675 0.44625C14.6285 0.66215 15.1011 0.95455 15.5737 1.4263C16.0059 1.85121 16.3404 2.3652 16.5538 2.9325C16.7637 3.47395 16.9065 4.09105 16.949 4.9963C16.989 5.9024 17 6.19055 17 8.5C17 10.8095 16.9915 11.0976 16.949 12.0037C16.9065 12.9089 16.7637 13.5252 16.5538 14.0675C16.341 14.6351 16.0064 15.1492 15.5737 15.5737C15.1487 16.0058 14.6347 16.3402 14.0675 16.5538C13.526 16.7637 12.9089 16.9065 12.0045 16.949C11.0976 16.989 10.8095 17 8.5 17C6.19055 17 5.9024 16.9915 4.99545 16.949C4.09105 16.9065 3.4748 16.7637 2.9325 16.5538C2.36498 16.3408 1.8509 16.0063 1.4263 15.5737C0.994017 15.1488 0.659566 14.6348 0.44625 14.0675C0.23545 13.526 0.0935 12.9089 0.051 12.0037C0.0102 11.0976 0 10.8095 0 8.5C0 6.19055 0.00849995 5.9024 0.051 4.9963C0.0935 4.09105 0.23545 3.4748 0.44625 2.9325C0.658951 2.36485 0.993483 1.85072 1.4263 1.4263C1.85102 0.993847 2.36506 0.65937 2.9325 0.44625C3.47395 0.23545 4.0902 0.0935 4.99545 0.051C5.90325 0.01105 6.1914 0 8.50085 0" fill="black" fill-opacity="0.8"/>
</svg>
