<svg width="23" height="23" viewBox="0 0 23 23" fill="none" xmlns="http://www.w3.org/2000/svg">
<path d="M11.7338 3.83337C12.2455 3.83625 13.5259 3.84871 14.8867 3.90333L15.3697 3.92442C16.7392 3.98862 18.1077 4.09979 18.7871 4.28858C19.6928 4.5435 20.4038 5.28525 20.6444 6.22633C21.0277 7.72133 21.0756 10.6366 21.0814 11.3429L21.0823 11.4885V11.6553C21.0756 12.3616 21.0277 15.2778 20.6444 16.7718C20.401 17.7158 19.6889 18.4585 18.7871 18.7096C18.1077 18.8984 16.7392 19.0095 15.3697 19.0737L14.8867 19.0958C13.5259 19.1495 12.2455 19.1629 11.7338 19.1648L11.5086 19.1657H11.2642C10.1813 19.159 5.65221 19.1102 4.21088 18.7096C3.30621 18.4547 2.59417 17.7129 2.35363 16.7718C1.97029 15.2768 1.92238 12.3616 1.91663 11.6553V11.3429C1.92238 10.6366 1.97029 7.72037 2.35363 6.22633C2.59704 5.28237 3.30908 4.53967 4.21183 4.28954C5.65221 3.888 10.1823 3.83912 11.2652 3.83337H11.7338ZM9.58233 8.14587V14.8542L15.3323 11.5L9.58233 8.14587Z" fill="black" fill-opacity="0.8"/>
</svg>
