<svg width="22" height="22" viewBox="0 0 22 22" fill="none" xmlns="http://www.w3.org/2000/svg">
<path d="M2.15513 15.9377C1.16038 12.1356 0.663014 10.2356 1.64678 8.94201C2.62944 7.64839 4.59102 7.62582 8.51086 7.5807L13.642 7.52165C17.5629 7.47652 19.5223 7.45397 20.5356 8.72462C21.5488 9.99415 21.0954 11.9073 20.1884 15.7302C19.6112 18.1625 19.3237 19.3782 18.4297 20.0952C17.5357 20.8111 16.289 20.8254 13.7954 20.8541L8.6643 20.9132C6.17076 20.9419 4.924 20.9562 4.01377 20.2611C3.10353 19.5648 2.78703 18.3562 2.15513 15.9377Z" stroke="white" stroke-width="1.5"/>
<path d="M19.3941 8.01094L18.5739 5.12574C18.2574 4.01264 18.0991 3.45665 17.7829 3.03915C17.4676 2.62438 17.0422 2.30696 16.5553 2.12322C16.0655 1.93773 15.4892 1.94436 14.3367 1.95763M2.77049 8.20226L3.52403 5.29895C3.81484 4.17886 3.96025 3.61937 4.26682 3.19471C4.5725 2.77279 4.99049 2.44567 5.47296 2.25076C5.95838 2.05405 6.53467 2.04742 7.68723 2.03416" stroke="white" stroke-width="1.5"/>
<path d="M7.68668 2.03413C7.68328 1.73947 7.79679 1.45553 8.00223 1.24478C8.20767 1.03402 8.4882 0.913724 8.78213 0.910341L13.2151 0.859322C13.509 0.85594 13.7922 0.969751 14.0025 1.17572C14.2127 1.38169 14.3327 1.66294 14.3361 1.95761C14.3395 2.25227 14.226 2.53621 14.0205 2.74696C13.8151 2.95771 13.5346 3.07801 13.2407 3.0814L8.8077 3.13242C8.51378 3.1358 8.23055 3.02199 8.02031 2.81602C7.81008 2.61005 7.69007 2.3288 7.68668 2.03413Z" stroke="white" stroke-width="1.5"/>
</svg>
